<svg xmlns="http://www.w3.org/2000/svg" viewBox="581 510 38 38"><path d="M599.1 517h1.7c.1 0 .1 0 .2.1.1 0 .1.1.1.2v4.4c0 .1 0 .1-.1.2-.1 0-.1.1-.2.1h-1.7c-.1 0-.1 0-.2-.1s-.1-.1-.1-.2v-4.4c0-.1 0-.1.1-.2s.1-.1.2-.1zm6 1.1h.1l1.5.8c.1 0 .1.1.1.2v.2l-2.2 3.8c0 .1-.1.1-.2.1h-.2l-1.4-.8c-.1 0-.1-.1-.1-.2v-.2l2.2-3.8s.1-.1.2-.1zm-10.3.1c.1 0 .2 0 .2.1l2.2 3.8v.2c0 .1-.1.1-.1.2l-1.5.8h-.2c-.1 0-.1-.1-.2-.1l-2.2-3.8v-.2c0-.1.1-.1.1-.2l1.5-.8h.2zm14.9 3.9c.1 0 .2 0 .2.1l.8 1.5v.2c0 .1-.1.1-.1.2l-3.8 2.2h-.2c-.1 0-.1-.1-.2-.1l-.8-1.5v-.2c0-.1.1-.1.1-.2l3.8-2.2h.2zm-19.4.1h.1l3.8 2.2c.1 0 .1.1.1.2v.2l-.8 1.4c0 .1-.1.1-.2.1h-.2l-3.8-2.2c-.1 0-.1-.1-.1-.2v-.2l.8-1.5h.3zm17 5.6h4.4c.1 0 .1 0 .2.1 0 0 .1.1.1.2v1.7c0 .1 0 .1-.1.2 0 .1-.1.1-.2.1h-4.4c-.1 0-.1 0-.2-.1 0-.1-.1-.1-.1-.2v-1.7c0-.1 0-.1.1-.2s.2-.1.2-.1zm-19 .1h4.4c.1 0 .1 0 .2.1 0 .1.1.1.1.2v1.7c0 .1 0 .1-.1.2 0 .1-.1.1-.2.1h-4.4c-.1 0-.1 0-.2-.1-.1 0-.1-.1-.1-.2v-1.7c0-.1 0-.1.1-.2 0 0 .1-.1.2-.1zm18.5 3.7h.1l3.8 2.2c.1 0 .1.1.1.2v.2l-.8 1.5c0 .1-.1.1-.2.1h-.2l-3.8-2.2c-.1 0-.1-.1-.1-.2v-.2l.8-1.4c.1-.1.2-.2.3-.2zm-13.6.1c.1 0 .2 0 .3.1l.8 1.5v.2c0 .1-.1.1-.1.2l-3.8 2.2h-.2c-.1 0-.1-.1-.2-.1l-.8-1.5v-.2c0-.1.1-.1.1-.2l3.8-2.2h.1zm11.3 2.9c.1 0 .2 0 .2.1l2.2 3.8v.2c0 .1-.1.1-.1.2l-1.5.8h-.2c-.1 0-.1-.1-.2-.1l-2.2-3.8v-.2c0-.1.1-.1.1-.2l1.5-.8h.2zm-8.8.1h.1l1.4.8c.1 0 .1.1.1.2v.2l-2.2 3.8c0 .1-.1.1-.2.1h-.2l-1.5-.8c-.1 0-.1-.1-.1-.2v-.2l2.2-3.8c.2-.1.2-.1.4-.1zm3.5 1.4h1.7c.1 0 .1 0 .2.1s.1.1.1.2v4.4c0 .1 0 .1-.1.2 0 .1-.1.1-.2.1h-1.7c-.1 0-.1 0-.2-.1-.1 0-.1-.1-.1-.2v-4.4c0-.1 0-.1.1-.2s.2-.1.2-.1z" fill="#fff"/></svg>